<mxfile host="app.diagrams.net" modified="2023-10-09T10:46:38.654Z" agent="Mozilla/5.0 (Windows NT 10.0; Win64; x64) AppleWebKit/537.36 (KHTML, like Gecko) Chrome/117.0.0.0 Safari/537.36" etag="6IRMnOvEW4lnCYjjPM6o" version="22.0.4" type="device">
  <diagram name="Page-1" id="55a83fd1-7818-8e21-69c5-c3457e3827bb">
    <mxGraphModel dx="1750" dy="1122" grid="1" gridSize="10" guides="1" tooltips="1" connect="1" arrows="1" fold="1" page="1" pageScale="1" pageWidth="1100" pageHeight="850" background="none" math="0" shadow="0">
      <root>
        <mxCell id="0" />
        <mxCell id="1" parent="0" />
        <mxCell id="Hxq2TL6vqvPPPZUKsmFk-27" value="" style="rounded=1;whiteSpace=wrap;html=1;" vertex="1" parent="1">
          <mxGeometry y="365" width="120" height="120" as="geometry" />
        </mxCell>
        <mxCell id="Hxq2TL6vqvPPPZUKsmFk-22" value="" style="fontColor=#0066CC;verticalAlign=top;verticalLabelPosition=bottom;labelPosition=center;align=center;html=1;outlineConnect=0;fillColor=#CCCCCC;strokeColor=#6881B3;gradientColor=none;gradientDirection=north;strokeWidth=2;shape=mxgraph.networks.firewall;" vertex="1" parent="1">
          <mxGeometry x="220" y="375" width="100" height="100" as="geometry" />
        </mxCell>
        <mxCell id="Hxq2TL6vqvPPPZUKsmFk-23" value="" style="html=1;outlineConnect=0;fillColor=#CCCCCC;strokeColor=#6881B3;gradientColor=none;gradientDirection=north;strokeWidth=2;shape=mxgraph.networks.cloud;fontColor=#ffffff;" vertex="1" parent="1">
          <mxGeometry x="15" y="400" width="90" height="50" as="geometry" />
        </mxCell>
        <mxCell id="Hxq2TL6vqvPPPZUKsmFk-29" value="" style="endArrow=none;html=1;rounded=0;entryX=0;entryY=0.5;entryDx=0;entryDy=0;entryPerimeter=0;exitX=1;exitY=0.5;exitDx=0;exitDy=0;" edge="1" parent="1" source="Hxq2TL6vqvPPPZUKsmFk-27" target="Hxq2TL6vqvPPPZUKsmFk-22">
          <mxGeometry width="50" height="50" relative="1" as="geometry">
            <mxPoint x="120" y="470" as="sourcePoint" />
            <mxPoint x="170" y="420" as="targetPoint" />
          </mxGeometry>
        </mxCell>
        <mxCell id="Hxq2TL6vqvPPPZUKsmFk-30" value="" style="endArrow=none;html=1;rounded=0;exitX=1;exitY=0.5;exitDx=0;exitDy=0;exitPerimeter=0;entryX=-0.004;entryY=0.584;entryDx=0;entryDy=0;entryPerimeter=0;" edge="1" parent="1" source="Hxq2TL6vqvPPPZUKsmFk-22" target="Hxq2TL6vqvPPPZUKsmFk-26">
          <mxGeometry width="50" height="50" relative="1" as="geometry">
            <mxPoint x="600" y="440" as="sourcePoint" />
            <mxPoint x="650" y="390" as="targetPoint" />
          </mxGeometry>
        </mxCell>
        <mxCell id="Hxq2TL6vqvPPPZUKsmFk-48" value="" style="group" vertex="1" connectable="0" parent="1">
          <mxGeometry x="480" y="343" width="590" height="395" as="geometry" />
        </mxCell>
        <mxCell id="Hxq2TL6vqvPPPZUKsmFk-40" value="" style="rounded=1;whiteSpace=wrap;html=1;" vertex="1" parent="Hxq2TL6vqvPPPZUKsmFk-48">
          <mxGeometry width="590" height="395" as="geometry" />
        </mxCell>
        <mxCell id="Hxq2TL6vqvPPPZUKsmFk-8" value="" style="fontColor=#0066CC;verticalAlign=top;verticalLabelPosition=bottom;labelPosition=center;align=center;html=1;outlineConnect=0;fillColor=#CCCCCC;strokeColor=#6881B3;gradientColor=none;gradientDirection=north;strokeWidth=2;shape=mxgraph.networks.server;" vertex="1" parent="Hxq2TL6vqvPPPZUKsmFk-48">
          <mxGeometry x="40" y="167.5" width="90" height="100" as="geometry" />
        </mxCell>
        <mxCell id="Hxq2TL6vqvPPPZUKsmFk-10" value="" style="fontColor=#0066CC;verticalAlign=top;verticalLabelPosition=bottom;labelPosition=center;align=center;html=1;outlineConnect=0;fillColor=#CCCCCC;strokeColor=#6881B3;gradientColor=none;gradientDirection=north;strokeWidth=2;shape=mxgraph.networks.server;" vertex="1" parent="Hxq2TL6vqvPPPZUKsmFk-48">
          <mxGeometry x="170" y="167.5" width="90" height="100" as="geometry" />
        </mxCell>
        <mxCell id="Hxq2TL6vqvPPPZUKsmFk-14" value="" style="fontColor=#0066CC;verticalAlign=top;verticalLabelPosition=bottom;labelPosition=center;align=center;html=1;outlineConnect=0;fillColor=#CCCCCC;strokeColor=#6881B3;gradientColor=none;gradientDirection=north;strokeWidth=2;shape=mxgraph.networks.pc;" vertex="1" parent="Hxq2TL6vqvPPPZUKsmFk-48">
          <mxGeometry x="325" y="199" width="100" height="70" as="geometry" />
        </mxCell>
        <mxCell id="Hxq2TL6vqvPPPZUKsmFk-15" value="" style="fontColor=#0066CC;verticalAlign=top;verticalLabelPosition=bottom;labelPosition=center;align=center;html=1;outlineConnect=0;fillColor=#CCCCCC;strokeColor=#6881B3;gradientColor=none;gradientDirection=north;strokeWidth=2;shape=mxgraph.networks.pc;" vertex="1" parent="Hxq2TL6vqvPPPZUKsmFk-48">
          <mxGeometry x="455" y="289" width="100" height="70" as="geometry" />
        </mxCell>
        <mxCell id="Hxq2TL6vqvPPPZUKsmFk-16" value="" style="fontColor=#0066CC;verticalAlign=top;verticalLabelPosition=bottom;labelPosition=center;align=center;html=1;outlineConnect=0;fillColor=#CCCCCC;strokeColor=#6881B3;gradientColor=none;gradientDirection=north;strokeWidth=2;shape=mxgraph.networks.pc;" vertex="1" parent="Hxq2TL6vqvPPPZUKsmFk-48">
          <mxGeometry x="455" y="199" width="100" height="70" as="geometry" />
        </mxCell>
        <mxCell id="Hxq2TL6vqvPPPZUKsmFk-17" value="" style="fontColor=#0066CC;verticalAlign=top;verticalLabelPosition=bottom;labelPosition=center;align=center;html=1;outlineConnect=0;fillColor=#CCCCCC;strokeColor=#6881B3;gradientColor=none;gradientDirection=north;strokeWidth=2;shape=mxgraph.networks.pc;" vertex="1" parent="Hxq2TL6vqvPPPZUKsmFk-48">
          <mxGeometry x="455" y="111.5" width="100" height="70" as="geometry" />
        </mxCell>
        <mxCell id="Hxq2TL6vqvPPPZUKsmFk-18" value="" style="fontColor=#0066CC;verticalAlign=top;verticalLabelPosition=bottom;labelPosition=center;align=center;html=1;outlineConnect=0;fillColor=#CCCCCC;strokeColor=#6881B3;gradientColor=none;gradientDirection=north;strokeWidth=2;shape=mxgraph.networks.laptop;" vertex="1" parent="Hxq2TL6vqvPPPZUKsmFk-48">
          <mxGeometry x="325" y="119" width="100" height="55" as="geometry" />
        </mxCell>
        <mxCell id="Hxq2TL6vqvPPPZUKsmFk-19" value="" style="fontColor=#0066CC;verticalAlign=top;verticalLabelPosition=bottom;labelPosition=center;align=center;html=1;outlineConnect=0;fillColor=#CCCCCC;strokeColor=#6881B3;gradientColor=none;gradientDirection=north;strokeWidth=2;shape=mxgraph.networks.tablet;" vertex="1" parent="Hxq2TL6vqvPPPZUKsmFk-48">
          <mxGeometry x="325" y="289" width="100" height="70" as="geometry" />
        </mxCell>
        <mxCell id="Hxq2TL6vqvPPPZUKsmFk-43" value="&lt;h1&gt;&lt;font face=&quot;Verdana&quot; style=&quot;font-size: 26px;&quot;&gt;Domain&lt;/font&gt;&lt;/h1&gt;" style="text;html=1;strokeColor=none;fillColor=none;align=center;verticalAlign=middle;whiteSpace=wrap;rounded=0;" vertex="1" parent="Hxq2TL6vqvPPPZUKsmFk-48">
          <mxGeometry x="120" y="87.5" width="60" height="30" as="geometry" />
        </mxCell>
        <mxCell id="Hxq2TL6vqvPPPZUKsmFk-45" value="&lt;h4&gt;&lt;font face=&quot;Verdana&quot; style=&quot;font-size: 26px;&quot;&gt;DC&lt;/font&gt;&lt;/h4&gt;" style="text;html=1;strokeColor=none;fillColor=none;align=center;verticalAlign=middle;whiteSpace=wrap;rounded=0;" vertex="1" parent="Hxq2TL6vqvPPPZUKsmFk-48">
          <mxGeometry x="55" y="277.5" width="60" height="30" as="geometry" />
        </mxCell>
        <mxCell id="Hxq2TL6vqvPPPZUKsmFk-46" value="&lt;h4&gt;&lt;font face=&quot;Verdana&quot; style=&quot;font-size: 26px;&quot;&gt;DC&lt;/font&gt;&lt;/h4&gt;" style="text;html=1;strokeColor=none;fillColor=none;align=center;verticalAlign=middle;whiteSpace=wrap;rounded=0;" vertex="1" parent="Hxq2TL6vqvPPPZUKsmFk-48">
          <mxGeometry x="185" y="277.5" width="60" height="30" as="geometry" />
        </mxCell>
        <mxCell id="Hxq2TL6vqvPPPZUKsmFk-47" value="&lt;h4&gt;&lt;font face=&quot;Verdana&quot;&gt;&lt;span style=&quot;font-size: 26px;&quot;&gt;Clients&lt;/span&gt;&lt;/font&gt;&lt;/h4&gt;" style="text;html=1;strokeColor=none;fillColor=none;align=center;verticalAlign=middle;whiteSpace=wrap;rounded=0;" vertex="1" parent="Hxq2TL6vqvPPPZUKsmFk-48">
          <mxGeometry x="410" y="50" width="60" height="30" as="geometry" />
        </mxCell>
        <mxCell id="Hxq2TL6vqvPPPZUKsmFk-26" value="" style="rounded=1;whiteSpace=wrap;html=1;container=0;" vertex="1" parent="1">
          <mxGeometry x="480" y="113" width="590" height="150" as="geometry" />
        </mxCell>
        <mxCell id="Hxq2TL6vqvPPPZUKsmFk-6" value="" style="fontColor=#0066CC;verticalAlign=top;verticalLabelPosition=bottom;labelPosition=center;align=center;html=1;outlineConnect=0;fillColor=#CCCCCC;strokeColor=#6881B3;gradientColor=none;gradientDirection=north;strokeWidth=2;shape=mxgraph.networks.web_server;container=0;" vertex="1" parent="1">
          <mxGeometry x="790" y="135.5" width="105" height="105" as="geometry" />
        </mxCell>
        <mxCell id="Hxq2TL6vqvPPPZUKsmFk-24" value="" style="fontColor=#0066CC;verticalAlign=top;verticalLabelPosition=bottom;labelPosition=center;align=center;html=1;outlineConnect=0;fillColor=#CCCCCC;strokeColor=#6881B3;gradientColor=none;gradientDirection=north;strokeWidth=2;shape=mxgraph.networks.mail_server;container=0;" vertex="1" parent="1">
          <mxGeometry x="930" y="135.5" width="105" height="105" as="geometry" />
        </mxCell>
        <mxCell id="Hxq2TL6vqvPPPZUKsmFk-38" value="&lt;h1&gt;&lt;font face=&quot;Verdana&quot; style=&quot;font-size: 26px;&quot;&gt;DMZ&lt;/font&gt;&lt;/h1&gt;" style="text;html=1;strokeColor=none;fillColor=none;align=center;verticalAlign=middle;whiteSpace=wrap;rounded=0;container=0;" vertex="1" parent="1">
          <mxGeometry x="600" y="173" width="60" height="30" as="geometry" />
        </mxCell>
        <mxCell id="Hxq2TL6vqvPPPZUKsmFk-49" value="" style="endArrow=none;html=1;rounded=0;exitX=1;exitY=0.5;exitDx=0;exitDy=0;exitPerimeter=0;entryX=0;entryY=0.5;entryDx=0;entryDy=0;" edge="1" parent="1" source="Hxq2TL6vqvPPPZUKsmFk-22" target="Hxq2TL6vqvPPPZUKsmFk-40">
          <mxGeometry width="50" height="50" relative="1" as="geometry">
            <mxPoint x="610" y="500" as="sourcePoint" />
            <mxPoint x="660" y="450" as="targetPoint" />
          </mxGeometry>
        </mxCell>
      </root>
    </mxGraphModel>
  </diagram>
</mxfile>
